<svg width="45" height="71" viewBox="0 0 45 71" fill="none" xmlns="http://www.w3.org/2000/svg">
<g clip-path="url(#clip0)">
<path d="M11.0645 70.1885C17.1722 70.1885 22.1291 64.9477 22.1291 58.4904V46.7923H11.0645C4.95691 46.7923 0 52.0331 0 58.4904C0 64.9477 4.95691 70.1885 11.0645 70.1885Z" fill="#0ACF83"/>
<path d="M0 35.0943C0 28.6369 4.95691 23.3962 11.0645 23.3962H22.1291V46.7923H11.0645C4.95691 46.7923 0 41.5516 0 35.0943Z" fill="#A259FF"/>
<path d="M0 11.6981C0 5.24074 4.95691 0 11.0645 0H22.1291V23.3962H11.0645C4.95691 23.3962 0 18.1554 0 11.6981Z" fill="#F24E1E"/>
<path d="M22.1289 0H33.1934C39.3011 0 44.258 5.24074 44.258 11.6981C44.258 18.1554 39.3011 23.3962 33.1934 23.3962H22.1289V0Z" fill="#FF7262"/>
<path d="M44.258 35.0943C44.258 41.5516 39.3011 46.7923 33.1934 46.7923C27.0858 46.7923 22.1289 41.5516 22.1289 35.0943C22.1289 28.6369 27.0858 23.3962 33.1934 23.3962C39.3011 23.3962 44.258 28.6369 44.258 35.0943Z" fill="#1ABCFE"/>
</g>
<defs>
<clipPath id="clip0">
<rect width="44.2581" height="70.1885" fill="white"/>
</clipPath>
</defs>
</svg>
