<svg width="63" height="66" viewBox="0 0 63 66" fill="none" xmlns="http://www.w3.org/2000/svg">
<g clip-path="url(#clip0)">
<path d="M61.7006 30.0519L34.35 1.38176C32.7758 -0.269455 30.2211 -0.269455 28.645 1.38176L22.9655 7.33557L30.1702 14.8883C31.8445 14.2952 33.7644 14.693 35.099 16.0921C36.44 17.5001 36.8168 19.53 36.2373 21.2907L43.1807 28.5697C44.8606 27.963 46.7989 28.3555 48.1405 29.7643C50.0157 31.7292 50.0157 34.9139 48.1405 36.8802C46.2649 38.8466 43.227 38.8466 41.3504 36.8802C39.9399 35.4 39.5915 33.2286 40.3055 31.4071L33.8302 24.6191L33.8295 42.4823C34.2989 42.7256 34.7276 43.047 35.099 43.434C36.9741 45.3989 36.9741 48.5838 35.099 50.5516C33.2234 52.517 30.184 52.517 28.311 50.5516C26.4359 48.5838 26.4359 45.3992 28.311 43.4342C28.7604 42.9629 29.2944 42.5897 29.8822 42.3361V24.3064C29.2936 24.0544 28.7592 23.681 28.311 23.2082C26.8903 21.7209 26.5487 19.5356 27.2767 17.7069L20.1745 10.2609L1.42067 29.9193C-0.155198 31.572 -0.155198 34.2503 1.42067 35.9018L28.7718 64.5724C30.3464 66.2239 32.9006 66.2239 34.4772 64.5724L61.7004 36.0349C63.2757 34.3829 63.2757 31.7031 61.7004 30.0519" fill="#DE4C36"/>
</g>
<defs>
<clipPath id="clip0">
<rect width="62.6432" height="65.6689" fill="white" transform="translate(0.356934 0.143349)"/>
</clipPath>
</defs>
</svg>
