<svg width="58" height="59" viewBox="0 0 58 59" fill="none" xmlns="http://www.w3.org/2000/svg">
<g clip-path="url(#clip0)">
<path d="M28.648 0C12.8282 0 0 13.401 0 29.9324C0 43.1573 8.2085 54.3774 19.5913 58.3353C21.023 58.6124 21.5488 57.6859 21.5488 56.8953C21.5488 56.1816 21.5219 53.8237 21.5098 51.3227C13.5399 53.1332 11.8582 47.791 11.8582 47.791C10.5549 44.3312 8.67716 43.411 8.67716 43.411C6.07804 41.5534 8.87321 41.5917 8.87321 41.5917C11.7499 41.8027 13.2646 44.6761 13.2646 44.6761C15.8199 49.252 19.9666 47.9292 21.6014 47.1643C21.8585 45.2299 22.6009 43.9091 23.4203 43.1618C17.0571 42.405 10.368 39.8384 10.368 28.3692C10.368 25.1012 11.4871 22.4309 13.3197 20.3347C13.0222 19.5808 12.0417 16.5366 13.5972 12.4134C13.5972 12.4134 16.0029 11.609 21.4776 15.4817C23.7627 14.8185 26.2134 14.486 28.648 14.4746C31.0827 14.486 33.5354 14.8183 35.8248 15.4817C41.2927 11.6093 43.6951 12.4137 43.6951 12.4137C45.2544 16.5364 44.2734 19.581 43.976 20.3347C45.8128 22.4309 46.9242 25.1012 46.9242 28.3692C46.9242 39.8657 40.2224 42.3971 33.8431 43.1381C34.8707 44.067 35.7863 45.8886 35.7863 48.6812C35.7863 52.686 35.7531 55.9094 35.7531 56.8953C35.7531 57.692 36.2688 58.6252 37.7209 58.3311C49.0974 54.369 57.2956 43.1531 57.2956 29.9327C57.2956 13.401 44.4692 0 28.648 0ZM10.7297 42.6394C10.6666 42.7881 10.4426 42.8327 10.2387 42.7305C10.0308 42.633 9.91416 42.4303 9.9813 42.2811C10.0431 42.1279 10.2676 42.0851 10.4748 42.1878C10.683 42.2855 10.8016 42.4902 10.7297 42.6394ZM12.1388 43.9531C12.0023 44.0854 11.7351 44.0239 11.5538 43.8149C11.3665 43.6063 11.3313 43.3271 11.4699 43.1929C11.6109 43.0605 11.8698 43.1225 12.0576 43.3311C12.2452 43.5422 12.2814 43.8193 12.1388 43.9531ZM13.1057 45.634C12.93 45.7614 12.6431 45.6419 12.4656 45.3758C12.2901 45.1097 12.2901 44.7905 12.4694 44.6626C12.6473 44.5347 12.93 44.6497 13.1097 44.914C13.2848 45.1845 13.2848 45.5037 13.1055 45.6342L13.1057 45.634ZM14.7404 47.5807C14.5835 47.7617 14.2489 47.7131 14.0041 47.4662C13.7536 47.2248 13.684 46.8825 13.8416 46.7015C14.0005 46.52 14.3369 46.571 14.5835 46.8161C14.832 47.0569 14.9081 47.4018 14.7404 47.5807ZM16.8536 48.2378C16.7843 48.4724 16.462 48.579 16.1377 48.4794C15.8136 48.3767 15.6016 48.1022 15.667 47.8653C15.7344 47.6291 16.058 47.5183 16.3848 47.6249C16.7084 47.7269 16.921 47.9996 16.8536 48.2381V48.2378ZM19.2583 48.5168C19.2663 48.7635 18.9913 48.9681 18.6506 48.9728C18.3082 48.9808 18.0309 48.7811 18.0271 48.5379C18.0271 48.2888 18.2961 48.0861 18.6388 48.08C18.9794 48.073 19.2583 48.2713 19.2583 48.5168ZM21.6206 48.4221C21.6613 48.663 21.4248 48.9104 21.0864 48.9763C20.754 49.0397 20.446 48.891 20.4037 48.6522C20.3626 48.4053 20.6036 48.1579 20.9355 48.094C21.2744 48.0325 21.5774 48.1773 21.6206 48.4221Z" fill="#161614"/>
</g>
<defs>
<clipPath id="clip0">
<rect width="57.2956" height="58.4613" fill="white"/>
</clipPath>
</defs>
</svg>
