<svg width="64" height="64" viewBox="0 0 64 64" fill="none" xmlns="http://www.w3.org/2000/svg">
<path d="M50.5329 30.612C50.5329 27.22 49.3129 24.872 48.2689 23.044L47.9489 22.524C46.6809 20.484 45.5728 18.692 45.5728 16.604C45.5728 14.084 47.4849 11.732 50.1809 11.732C50.2609 11.732 50.3368 11.74 50.4128 11.744L50.5368 11.756C45.4815 7.11255 38.8651 4.53965 32.0009 4.54799C27.4515 4.54566 22.9731 5.67528 18.9691 7.83507C14.9652 9.99487 11.5615 13.117 9.06485 16.92C9.70485 16.94 10.3169 16.956 10.8329 16.956C13.7009 16.956 18.1448 16.608 18.1448 16.608C19.6248 16.52 19.8009 18.692 18.3209 18.868C18.3209 18.868 16.8369 19.044 15.1809 19.128L25.1809 48.864L31.1809 30.84L26.9009 19.124C25.4249 19.036 24.0249 18.864 24.0249 18.864C22.5449 18.776 22.7208 16.512 24.1968 16.6C24.1968 16.6 28.7329 16.948 31.4289 16.948C34.3009 16.948 38.7489 16.6 38.7489 16.6C40.2289 16.512 40.4008 18.688 38.9208 18.864C38.9208 18.864 37.4328 19.036 35.7808 19.124L45.7009 48.632L48.4369 39.484L48.6529 38.792C49.7329 35.352 50.5289 32.812 50.5289 30.608L50.5329 30.612ZM4.54885 32C4.54858 37.155 5.99957 42.2059 8.73577 46.5748C11.472 50.9436 15.3828 54.4539 20.0209 56.704L6.92085 20.824C5.35217 24.3408 4.54387 28.1492 4.54885 32V32Z" fill="#0173AA"/>
<path d="M24.2441 58.332L32.4841 34.4L40.9201 57.52C40.9761 57.652 41.0401 57.776 41.1161 57.896C35.6779 59.8119 29.7741 59.9645 24.2441 58.332V58.332ZM56.0841 18.828C56.2041 19.704 56.2721 20.64 56.2721 21.652C56.2721 24.436 55.7521 27.568 54.1841 31.484L45.8001 55.724C51.987 52.1294 56.525 46.2604 58.4469 39.368C60.3687 32.4757 59.5223 25.1053 56.0881 18.828H56.0841Z" fill="#0173AA"/>
<path fill-rule="evenodd" clip-rule="evenodd" d="M0 32C0 14.356 14.356 0 32 0C49.64 0 64 14.356 64 32C64 49.644 49.64 64 32 64C14.356 64 0 49.644 0 32ZM1.468 32C1.468 48.836 15.164 62.532 32 62.532C48.832 62.532 62.528 48.836 62.528 32C62.528 15.16 48.832 1.468 32 1.468C15.16 1.468 1.468 15.16 1.468 32Z" fill="#0173AA"/>
</svg>
