<svg width="63" height="71" viewBox="0 0 63 71" fill="none" xmlns="http://www.w3.org/2000/svg">
<g clip-path="url(#clip0)">
<path d="M62.9145 21.3785C62.914 20.1969 62.6625 19.1529 62.1541 18.2571C61.6547 17.3759 60.9065 16.6376 59.9033 16.0535C51.621 11.2546 43.3307 6.47036 35.0513 1.66657C32.8192 0.37181 30.6549 0.418897 28.4393 1.73244C25.1427 3.68616 8.63791 13.1883 3.71972 16.0509C1.6944 17.2292 0.708723 19.0324 0.708237 21.3763C0.705078 31.0273 0.708237 40.6778 0.705078 50.329C0.705564 51.4845 0.946395 52.5082 1.43243 53.3909C1.93208 54.2984 2.69054 55.0572 3.71704 55.6544C8.63548 58.5169 25.1425 68.0184 28.4383 69.9726C30.6549 71.2869 32.8192 71.3337 35.052 70.0385C43.3316 65.2345 51.6224 60.4504 59.906 55.6515C60.9325 55.0545 61.6909 54.2953 62.1906 53.3884C62.6759 52.5057 62.9172 51.482 62.9177 50.3264C62.9177 50.3264 62.9177 31.0297 62.9145 21.3785Z" fill="#A9B9CB"/>
<path d="M34.9952 1.72882C32.7667 0.437239 30.606 0.484325 28.3941 1.79445C25.1029 3.74305 8.62503 13.2206 3.71486 16.0758C1.6927 17.251 0.708723 19.0495 0.708237 21.3873C0.705078 31.0132 0.708237 40.6388 0.705078 50.2649C0.705564 51.4174 0.945909 52.4385 1.43122 53.3187C1.93013 54.2241 2.68738 54.9809 3.71218 55.5764C5.34397 56.5235 6.97697 57.4685 8.61118 58.4114L54.0779 12.7663C47.7162 9.0887 41.3528 5.414 34.9952 1.72882Z" fill="#7F8B99"/>
<path d="M38.2409 31.4529L47.9225 31.5214C47.9225 27.4718 43.8393 17.5543 32.1329 17.5543C24.6744 17.5543 14.6475 22.3147 14.6475 36.001C14.6475 49.687 24.4768 54.15 32.1329 54.15C44.5309 54.15 47.494 45.5373 47.494 40.6701L38.2576 40.14C38.2576 40.14 38.5048 45.7696 32.0835 45.7696C26.1563 45.7696 25.1672 38.4802 25.1672 36.001C25.1672 32.2324 26.5021 26.1826 32.0835 26.1826C37.6652 26.1826 38.2409 31.4529 38.2409 31.4529Z" fill="white"/>
</g>
<defs>
<clipPath id="clip0">
<rect width="62.2126" height="70.2637" fill="white" transform="translate(0.705078 0.476364)"/>
</clipPath>
</defs>
</svg>
