<svg width="64" height="64" viewBox="0 0 64 64" fill="none" xmlns="http://www.w3.org/2000/svg">
<path d="M57 0H7C3.13401 0 0 3.13401 0 7V57C0 60.866 3.13401 64 7 64H57C60.866 64 64 60.866 64 57V7C64 3.13401 60.866 0 57 0Z" fill="#092E20"/>
<path d="M46.5944 23.5495V40.106C46.5944 45.811 46.1769 48.547 44.9249 50.9122C43.7651 53.1852 42.2346 54.6227 39.0811 56.1997L32.4486 53.046C35.6026 51.562 37.1331 50.2635 38.1069 48.2685C39.1274 46.2282 39.4524 43.8627 39.4524 37.6482V23.5495H46.5944ZM35.2321 12.5195V45.5792C31.5684 46.2747 28.8784 46.553 25.9566 46.553C17.2374 46.553 12.6924 42.6112 12.6924 35.0512C12.6924 27.7697 17.5159 23.0395 24.9824 23.0395C26.1419 23.0395 27.0231 23.132 28.0899 23.4102V12.52H35.2324L35.2321 12.5195ZM25.6784 28.79C22.0609 28.79 19.9736 31.0163 19.9736 34.9117C19.9736 38.7153 21.9681 40.802 25.6321 40.802C26.4201 40.802 27.0696 40.7557 28.0899 40.617V29.1607C27.2551 28.8827 26.5596 28.79 25.6784 28.79ZM46.5944 12.5575V19.8855H39.4524V12.5578H46.5944V12.5575Z" fill="#FFFFFD"/>
</svg>
