<svg width="87" height="26" viewBox="0 0 87 26" fill="none" xmlns="http://www.w3.org/2000/svg">
<g clip-path="url(#clip0)">
<path d="M1.10441 19.5859V10.0234H12.988V9.46405H1.10441V0.74031H13.7393V0.181137H0.547852V20.1451H13.8506V19.5859H1.10458H1.10441ZM24.5654 5.7732L19.6395 12.2881L14.8247 5.77337H14.1011L19.3055 12.7077L13.6 20.1449H14.268L19.6392 13.1267L25.0383 20.1449H25.734L20.001 12.7073L25.2331 5.77303H24.5653L24.5654 5.7732ZM27.404 25.0662V16.1189H27.4597C27.7937 17.4237 28.4523 18.4722 29.4357 19.2645C30.419 20.0566 31.6713 20.4528 33.1927 20.4528C34.176 20.4528 35.0481 20.2525 35.8088 19.8517C36.5695 19.451 37.2049 18.9057 37.7152 18.216C38.2253 17.5262 38.615 16.7247 38.8841 15.8113C39.153 14.898 39.2876 13.9379 39.2876 12.9315C39.2876 11.8503 39.1483 10.8529 38.87 9.93964C38.5918 9.02621 38.1882 8.23393 37.6595 7.56299C37.1307 6.89188 36.4906 6.3698 35.7391 5.99724C34.9878 5.62435 34.1389 5.4379 33.1927 5.4379C32.4691 5.4379 31.7966 5.54514 31.175 5.75944C30.5535 5.97391 30.0016 6.27666 29.5192 6.66818C29.034 7.06271 28.6116 7.52943 28.2668 8.05218C27.9143 8.5835 27.6452 9.166 27.4597 9.79985H27.404V5.7732H26.8475V25.0662H27.404ZM33.1927 19.9214C31.4488 19.9214 30.0479 19.3202 28.9904 18.118C27.9329 16.9157 27.404 15.1867 27.404 12.9312C27.404 11.9991 27.534 11.1137 27.7937 10.2749C28.0535 9.43619 28.4291 8.6998 28.9207 8.06611C29.4125 7.43226 30.0201 6.92897 30.7436 6.55625C31.4672 6.18335 32.2836 5.9969 33.1927 5.9969C34.1204 5.9969 34.9322 6.18335 35.6279 6.55625C36.3236 6.92897 36.8988 7.43696 37.3534 8.08004C37.8079 8.72312 38.1511 9.45951 38.3831 10.2889C38.615 11.1184 38.7309 11.9991 38.7309 12.9312C38.7309 13.7701 38.6243 14.6043 38.4109 15.4337C38.1976 16.2632 37.8682 17.0089 37.4228 17.6707C36.9777 18.3323 36.4073 18.8728 35.7114 19.2924C35.0155 19.7117 34.176 19.9214 33.1927 19.9214ZM42.3489 20.1451V12.0085C42.3489 11.2256 42.4601 10.4612 42.683 9.71577C42.9055 8.97015 43.2487 8.31297 43.7126 7.74457C44.1764 7.176 44.7654 6.7286 45.4798 6.40236C46.1941 6.07612 47.0429 5.94102 48.0263 5.9969V5.43773C47.1727 5.41927 46.4261 5.51224 45.786 5.71732C45.1457 5.92239 44.5939 6.20198 44.13 6.55625C43.6661 6.91034 43.2952 7.32502 43.0169 7.80046C42.7388 8.27513 42.5324 8.78866 42.4045 9.32425H42.3489V5.7732H41.7923V20.1452H42.3489V20.1451ZM48.722 13.071H60.6889C60.7262 12.083 60.6288 11.1325 60.3968 10.2191C60.1649 9.30562 59.7938 8.49472 59.2836 7.78653C58.7733 7.07816 58.1147 6.50959 57.3076 6.08081C56.5005 5.65204 55.5404 5.43773 54.4272 5.43773C53.6293 5.43773 52.8501 5.60555 52.0894 5.94119C51.3287 6.27666 50.6608 6.76585 50.0857 7.40893C49.5106 8.05202 49.0467 8.83959 48.6942 9.77182C48.3418 10.7037 48.1654 11.7662 48.1654 12.9592C48.1654 14.0217 48.286 15.0143 48.5272 15.937C48.7684 16.8597 49.1394 17.6613 49.6403 18.3417C50.1414 19.022 50.7862 19.5486 51.5746 19.9214C52.363 20.2942 53.314 20.4713 54.4272 20.4527C56.0599 20.4527 57.4329 19.9912 58.546 19.0687C59.6593 18.1458 60.3179 16.8457 60.522 15.168H59.9655C59.7243 16.7526 59.1073 17.9409 58.1147 18.733C57.122 19.5253 55.8744 19.9214 54.3715 19.9214C53.351 19.9214 52.4883 19.7443 51.7832 19.3902C51.0784 19.0361 50.5031 18.5513 50.0578 17.9362C49.6126 17.321 49.2832 16.5987 49.0699 15.7692C48.8564 14.9398 48.7405 14.0403 48.722 13.071ZM60.1324 12.5118H48.7221C48.7776 11.5052 48.9632 10.6012 49.2785 9.79968C49.5941 8.99801 50.0068 8.31297 50.5171 7.74457C51.0272 7.176 51.621 6.74269 52.2982 6.44431C52.9754 6.1461 53.7036 5.9969 54.4829 5.9969C55.4106 5.9969 56.2267 6.16942 56.932 6.51429C57.6368 6.85916 58.226 7.32989 58.6992 7.92632C59.1722 8.52275 59.5294 9.21718 59.7706 10.0093C60.0118 10.8016 60.1324 11.6358 60.1324 12.5118ZM72.2386 10.0234H72.7952C72.7952 8.42021 72.3313 7.25521 71.4038 6.52822C70.4759 5.80123 69.2143 5.43773 67.6187 5.43773C66.7281 5.43773 65.9768 5.54967 65.3644 5.77337C64.7522 5.99691 64.2513 6.28589 63.8616 6.63999C63.4721 6.99409 63.1938 7.38561 63.0268 7.81438C62.8597 8.24316 62.7762 8.65331 62.7762 9.04467C62.7762 9.82754 62.9153 10.452 63.1938 10.918C63.4721 11.3841 63.908 11.7476 64.5017 12.0085C64.9099 12.1948 65.3736 12.3626 65.8932 12.512C66.4127 12.661 67.0157 12.8194 67.7023 12.9871C68.3144 13.1364 68.9174 13.2855 69.5112 13.4345C70.1049 13.5837 70.6291 13.784 71.0836 14.0356C71.5382 14.2873 71.9092 14.6089 72.1969 15.0004C72.4843 15.3917 72.6281 15.9044 72.6281 16.5381C72.6281 17.1533 72.4845 17.6753 72.1969 18.1039C71.9117 18.5304 71.5363 18.8885 71.0976 19.1526C70.6523 19.4228 70.1558 19.6184 69.6086 19.7396C69.0613 19.8608 68.5279 19.9214 68.0084 19.9214C66.32 19.9214 65.0258 19.5439 64.126 18.7891C63.2262 18.0341 62.7764 16.8457 62.7764 15.2239H62.2196C62.2196 17.0322 62.7067 18.3556 63.6807 19.1945C64.6548 20.0333 66.0974 20.4527 68.0084 20.4527C68.6206 20.4527 69.2375 20.3827 69.8592 20.2429C70.4806 20.1031 71.0373 19.8749 71.5289 19.5579C72.0163 19.2453 72.4257 18.8245 72.7255 18.3277C73.0317 17.8243 73.1849 17.2092 73.1849 16.4822C73.1849 15.7925 73.0502 15.2333 72.7813 14.8046C72.5122 14.3759 72.1598 14.0217 71.7236 13.7421C71.2877 13.4625 70.7961 13.2435 70.2487 13.0851C69.6983 12.9257 69.1462 12.7719 68.5927 12.6236C67.9115 12.444 67.2297 12.267 66.5472 12.0924C65.9629 11.9432 65.4202 11.7662 64.9193 11.5611C64.4369 11.356 64.0518 11.0625 63.7642 10.6804C63.4766 10.2983 63.3329 9.75303 63.3329 9.04467C63.3329 8.91427 63.37 8.68117 63.4442 8.3457C63.5183 8.01006 63.6947 7.66989 63.973 7.32502C64.2513 6.98032 64.6779 6.67271 65.2532 6.40236C65.8283 6.13217 66.6169 5.9969 67.6187 5.9969C68.3053 5.9969 68.9313 6.07158 69.4972 6.22061C70.0631 6.3698 70.5502 6.60743 70.9583 6.93367C71.3665 7.25991 71.6819 7.67459 71.9045 8.17788C72.1272 8.68134 72.2386 9.29639 72.2386 10.0234ZM85.1239 10.0234H85.6805C85.6805 8.42021 85.2168 7.25521 84.2891 6.52822C83.3614 5.80123 82.0997 5.43773 80.504 5.43773C79.6136 5.43773 78.8621 5.54967 78.2499 5.77337C77.6375 5.99691 77.1366 6.28589 76.7471 6.63999C76.3574 6.99409 76.0791 7.38561 75.9121 7.81438C75.745 8.24316 75.6617 8.65331 75.6617 9.04467C75.6617 9.82754 75.8008 10.452 76.0793 10.918C76.3574 11.3841 76.7935 11.7476 77.3872 12.0085C77.7954 12.1948 78.2591 12.3626 78.7786 12.512C79.298 12.661 79.901 12.8194 80.5876 12.9871C81.1999 13.1364 81.8029 13.2855 82.3966 13.4345C82.9904 13.5837 83.5144 13.784 83.969 14.0356C84.4235 14.2873 84.7947 14.6089 85.0822 15.0004C85.3698 15.3917 85.5136 15.9044 85.5136 16.5381C85.5136 17.1533 85.3698 17.6753 85.0822 18.1039C84.797 18.5304 84.4217 18.8885 83.9831 19.1526C83.5376 19.4228 83.0413 19.6184 82.4939 19.7396C81.9467 19.8608 81.4132 19.9214 80.8937 19.9214C79.2053 19.9214 77.9113 19.5439 77.0115 18.7891C76.1115 18.0341 75.6617 16.8457 75.6617 15.2239H75.1051C75.1051 17.0322 75.592 18.3556 76.5662 19.1945C77.5402 20.0333 78.9827 20.4527 80.8937 20.4527C81.5061 20.4527 82.123 20.3827 82.7445 20.2429C83.3659 20.1031 83.9226 19.8749 84.4144 19.5579C84.9018 19.2453 85.3112 18.8245 85.611 18.3277C85.9172 17.8243 86.0702 17.2092 86.0702 16.4822C86.0702 15.7925 85.9357 15.2333 85.6666 14.8046C85.3977 14.3759 85.0452 14.0217 84.6091 13.7421C84.1731 13.4625 83.6814 13.2435 83.1342 13.0851C82.5837 12.9257 82.0317 12.7719 81.4782 12.6236C80.797 12.444 80.1152 12.267 79.4327 12.0924C78.8482 11.9432 78.3055 11.7662 77.8046 11.5611C77.3222 11.356 76.9372 11.0625 76.6497 10.6804C76.3621 10.2983 76.2182 9.75303 76.2182 9.04467C76.2182 8.91427 76.2553 8.68117 76.3297 8.3457C76.4038 8.01006 76.5802 7.66989 76.8583 7.32502C77.1366 6.98032 77.5634 6.67271 78.1385 6.40236C78.7138 6.13217 79.5022 5.9969 80.5042 5.9969C81.1907 5.9969 81.8168 6.07158 82.3827 6.22061C82.9486 6.3698 83.4355 6.60743 83.8438 6.93367C84.252 7.25991 84.5674 7.67459 84.79 8.17788C85.0127 8.68134 85.1241 9.29639 85.1241 10.0234H85.1239Z" fill="#222222"/>
</g>
<defs>
<clipPath id="clip0">
<rect width="86.3657" height="24.885" fill="white" transform="translate(0.547852 0.181137)"/>
</clipPath>
</defs>
</svg>
