<svg width="54" height="72" viewBox="0 0 54 72" fill="none" xmlns="http://www.w3.org/2000/svg">
<g clip-path="url(#clip0)">
<path d="M17.4158 55.4484C17.4158 55.4484 14.6613 57.0395 19.3762 57.5779C25.0884 58.2251 28.0076 58.1324 34.3025 56.9489C34.3025 56.9489 35.9576 57.9796 38.2686 58.8725C24.1575 64.8796 6.33209 58.5244 17.4158 55.4484Z" fill="#5382A1"/>
<path d="M15.6917 47.6095C15.6917 47.6095 12.6021 49.8811 17.3206 50.3658C23.4225 50.991 28.2412 51.0422 36.5795 49.4474C36.5795 49.4474 37.7329 50.6087 39.5463 51.2439C22.4849 56.1993 3.48173 51.6347 15.6917 47.6095Z" fill="#5382A1"/>
<path d="M30.2282 34.3121C33.7054 38.2882 29.3147 41.8662 29.3147 41.8662C29.3147 41.8662 38.1434 37.3393 34.0888 31.6704C30.3019 26.3841 27.3977 23.7571 43.1192 14.7008C43.1192 14.7008 18.4418 20.8225 30.2282 34.3118" fill="#E76F00"/>
<path d="M48.8914 61.2466C48.8914 61.2466 50.9298 62.9147 46.6463 64.2054C38.5012 66.6564 12.7452 67.3965 5.5902 64.3031C3.01827 63.1919 7.84155 61.6496 9.35866 61.3258C10.9409 60.9849 11.8452 61.0486 11.8452 61.0486C8.98486 59.0471 -6.64289 64.9785 3.90717 66.6769C32.6784 71.3114 56.3542 64.5902 48.8914 61.2466Z" fill="#5382A1"/>
<path d="M18.7405 39.4874C18.7405 39.4874 5.63959 42.5783 14.1013 43.7005C17.674 44.1756 24.7962 44.0682 31.4305 43.516C36.8523 43.062 42.2965 42.0959 42.2965 42.0959C42.2965 42.0959 40.3847 42.9092 39.0016 43.8472C25.6976 47.3227 -0.00329447 45.7059 7.39567 42.1509C13.653 39.1466 18.7407 39.4874 18.7407 39.4874" fill="#5382A1"/>
<path d="M42.2424 52.5356C55.7668 45.5552 49.5137 38.8473 45.1491 39.7511C44.0793 39.9721 43.6024 40.1637 43.6024 40.1637C43.6024 40.1637 43.9996 39.5459 44.758 39.2785C53.3923 36.2632 60.0328 48.1712 41.9707 52.8874C41.9707 52.8876 42.18 52.7019 42.2424 52.5356Z" fill="#5382A1"/>
<path d="M34.0887 0.0769132C34.0887 0.0769132 41.5787 7.51916 26.9849 18.9626C15.2823 28.1425 24.3163 33.3765 26.9801 39.3566C20.149 33.2349 15.1358 27.8458 18.4992 22.8303C23.4353 15.4674 37.1106 11.8978 34.0887 0.0767059" fill="#E76F00"/>
<path d="M20.0695 71.4507C33.051 72.2762 52.9855 70.9928 53.4576 64.8916C53.4576 64.8916 52.5501 67.2047 42.7291 69.0414C31.6491 71.1124 17.9837 70.8707 9.87842 69.5433C9.87863 69.5433 11.5377 70.9074 20.0697 71.4507" fill="#5382A1"/>
</g>
<defs>
<clipPath id="clip0">
<rect width="53.4296" height="71.7275" fill="white" transform="translate(0.186035)"/>
</clipPath>
</defs>
</svg>
