<svg width="60" height="59" viewBox="0 0 60 59" fill="none" xmlns="http://www.w3.org/2000/svg">
<g clip-path="url(#clip0)">
<path d="M29.7332 0.190765C14.9047 0.190765 15.8305 6.64652 15.8305 6.64652L15.847 13.3349H29.9976V15.3429H10.2266C10.2266 15.3429 0.737793 14.2625 0.737793 29.2831C0.737793 44.3041 9.01985 43.7714 9.01985 43.7714H13.9625V36.8011C13.9625 36.8011 13.6961 28.4866 22.1124 28.4866H36.1473C36.1473 28.4866 44.0325 28.6145 44.0325 20.8359V7.97441C44.0325 7.97441 45.2301 0.190765 29.7332 0.190765ZM21.9306 4.68856C22.265 4.68825 22.5961 4.75415 22.9051 4.88248C23.2141 5.01081 23.4949 5.19904 23.7313 5.43642C23.9678 5.6738 24.1553 5.95565 24.2831 6.26585C24.4109 6.57606 24.4766 6.90852 24.4763 7.24422C24.4766 7.57992 24.4109 7.91239 24.2831 8.22259C24.1553 8.5328 23.9678 8.81465 23.7313 9.05203C23.4949 9.2894 23.2141 9.47764 22.9051 9.60597C22.5961 9.73429 22.265 9.80019 21.9306 9.79989C21.5962 9.80019 21.265 9.73429 20.956 9.60597C20.647 9.47764 20.3663 9.2894 20.1298 9.05203C19.8934 8.81465 19.7059 8.5328 19.578 8.22259C19.4502 7.91239 19.3846 7.57992 19.3849 7.24422C19.3846 6.90852 19.4502 6.57606 19.578 6.26585C19.7059 5.95565 19.8934 5.6738 20.1298 5.43642C20.3663 5.19904 20.647 5.01081 20.956 4.88248C21.265 4.75415 21.5962 4.68825 21.9306 4.68856Z" fill="url(#paint0_linear)"/>
<path d="M30.155 58.5269C44.9835 58.5269 44.0576 52.0711 44.0576 52.0711L44.0412 45.383H29.8903V43.375H49.6614C49.6614 43.375 59.1501 44.4553 59.1501 29.4343C59.1501 14.4135 50.8681 14.9462 50.8681 14.9462H45.9254V21.9163C45.9254 21.9163 46.1919 30.2308 37.7755 30.2308H23.7407C23.7407 30.2308 15.8554 30.1029 15.8554 37.8818V50.7435C15.8554 50.7435 14.6581 58.5269 30.1547 58.5269H30.155ZM37.9576 54.0295C37.6232 54.0298 37.2921 53.9639 36.9831 53.8356C36.6741 53.7073 36.3933 53.5191 36.1569 53.2817C35.9204 53.0443 35.7329 52.7624 35.6051 52.4522C35.4773 52.142 35.4116 51.8096 35.4119 51.4739C35.4116 51.1381 35.4772 50.8057 35.605 50.4954C35.7328 50.1852 35.9203 49.9033 36.1568 49.6659C36.3932 49.4285 36.674 49.2403 36.983 49.1119C37.292 48.9836 37.6232 48.9177 37.9576 48.918C38.292 48.9177 38.6232 48.9836 38.9322 49.1119C39.2411 49.2402 39.5219 49.4285 39.7584 49.6658C39.9948 49.9032 40.1823 50.1851 40.3101 50.4953C40.438 50.8055 40.5036 51.1379 40.5033 51.4736C40.5036 51.8093 40.438 52.1418 40.3101 52.452C40.1823 52.7622 39.9948 53.0441 39.7584 53.2814C39.5219 53.5188 39.2411 53.7071 38.9322 53.8354C38.6232 53.9637 38.292 54.0296 37.9576 54.0293V54.0295Z" fill="url(#paint1_linear)"/>
</g>
<defs>
<linearGradient id="paint0_linear" x1="6.35114" y1="5.43772" x2="35.4103" y2="34.0947" gradientUnits="userSpaceOnUse">
<stop stop-color="#387EB8"/>
<stop offset="1" stop-color="#366994"/>
</linearGradient>
<linearGradient id="paint1_linear" x1="24.1195" y1="23.9128" x2="55.3201" y2="53.2925" gradientUnits="userSpaceOnUse">
<stop stop-color="#FFE052"/>
<stop offset="1" stop-color="#FFC331"/>
</linearGradient>
<clipPath id="clip0">
<rect width="58.553" height="58.553" fill="white" transform="translate(0.705078 0.1745)"/>
</clipPath>
</defs>
</svg>
