<svg width="66" height="65" viewBox="0 0 66 65" fill="none" xmlns="http://www.w3.org/2000/svg">
<g clip-path="url(#clip0)">
<path d="M60.0282 50.2301C56.4867 50.1414 53.7419 50.4972 51.4398 51.4753C50.7757 51.7419 49.7131 51.7421 49.6246 52.5871C49.9788 52.9429 50.023 53.521 50.333 54.01C50.8648 54.8992 51.7938 56.0999 52.635 56.7228C53.5645 57.4341 54.4946 58.1454 55.4681 58.768C57.1948 59.8353 59.1429 60.4577 60.8251 61.525C61.7994 62.1471 62.7727 62.9482 63.7468 63.615C64.2338 63.9702 64.5435 64.5489 65.1636 64.771V64.6378C64.8534 64.2373 64.7648 63.6595 64.4552 63.2147C64.0129 62.77 63.5697 62.3698 63.1269 61.925C61.8432 60.1911 60.2495 58.6791 58.5231 57.4341C57.1065 56.4557 54.0073 55.1218 53.432 53.4763C53.432 53.4763 53.3874 53.4321 53.3434 53.3876C54.3172 53.2987 55.4681 52.9429 56.3981 52.676C57.9032 52.2755 59.2755 52.3647 60.8251 51.9645C61.5333 51.7866 62.2417 51.5642 62.9498 51.3419V50.9419C62.1534 50.1414 61.5778 49.0743 60.7366 48.3183C58.4788 46.3612 55.9994 44.4494 53.432 42.8487C52.0594 41.9592 50.2884 41.3811 48.8276 40.6253C48.2968 40.3582 47.4111 40.225 47.1014 39.7803C46.3042 38.8022 45.8614 37.5127 45.2861 36.3565C44.0026 33.9105 42.7627 31.1982 41.6558 28.6193C40.8594 26.8849 40.3723 25.1504 39.3983 23.5499C34.8385 15.9904 29.8802 11.4102 22.2659 6.91878C20.6277 5.98512 18.6799 5.58486 16.5992 5.09592C15.4928 5.05119 14.3857 4.96251 13.2791 4.91778C12.5707 4.60647 11.8623 3.76175 11.2424 3.3615C8.71952 1.76049 2.21135 -1.70759 0.352051 2.87256C-0.843374 5.76275 2.12305 8.60848 3.14087 10.0763C3.89405 11.0989 4.86759 12.255 5.3989 13.4112C5.70882 14.1668 5.79712 14.9678 6.10704 15.768C6.8157 17.724 7.47931 19.9035 8.40934 21.7268C8.89637 22.6605 9.42741 23.6386 10.0473 24.4836C10.4015 24.9725 11.0211 25.1952 11.1541 25.9954C10.5345 26.8849 10.49 28.219 10.1356 29.3306C8.54191 34.3555 9.16202 40.5808 11.4195 44.2715C12.1277 45.3828 13.8101 47.8293 16.0679 46.8951C18.0603 46.0949 17.6175 43.5602 18.1926 41.3369C18.3259 40.8027 18.2374 40.4474 18.5028 40.0916V40.1808C19.1226 41.4255 19.7422 42.6266 20.3178 43.8715C21.6903 46.0502 24.0807 48.3183 26.0728 49.8303C27.1356 50.6303 27.9766 52.009 29.3049 52.4982V52.3645H29.2161C28.9504 51.9642 28.5519 51.7866 28.198 51.475C27.4013 50.675 26.5155 49.6967 25.8959 48.8072C24.0369 46.3167 22.3985 43.56 20.9376 40.714C20.2295 39.3359 19.6094 37.8238 19.0341 36.4454C18.7682 35.9112 18.7682 35.1112 18.3257 34.8447C17.6616 35.8228 16.6878 36.6678 16.2007 37.8683C15.36 39.7803 15.2712 42.1371 14.9613 44.5826C14.7842 44.6276 14.8725 44.5826 14.7839 44.672C13.3676 44.3157 12.8806 42.8487 12.3491 41.6034C11.0208 38.4464 10.7994 33.3771 11.9508 29.7308C12.2608 28.7969 13.589 25.8622 13.0577 24.9728C12.7921 24.1278 11.9063 23.6386 11.4195 22.9718C10.8442 22.1268 10.2241 21.06 9.82589 20.1258C8.76329 17.6356 8.23199 14.8786 7.08109 12.3884C6.54979 11.2321 5.62052 10.0318 4.8676 8.96451C4.02662 7.76401 3.09685 6.91878 2.43272 5.49592C2.2116 5.00698 1.90142 4.20648 2.25562 3.67281C2.34417 3.31703 2.52102 3.18386 2.87547 3.09492C3.45105 2.60547 5.08922 3.22808 5.66429 3.49492C7.30247 4.16149 8.67474 4.78462 10.0473 5.71828C10.6669 6.16301 11.331 7.00798 12.1277 7.23034H13.0575C14.4743 7.5414 16.0676 7.31929 17.3959 7.71928C19.7425 8.47506 21.8672 9.58687 23.771 10.7876C29.5705 14.4783 34.3512 19.7256 37.5833 25.9954C38.1146 27.0178 38.3357 27.9522 38.8227 29.019C39.7528 31.1982 40.9036 33.4215 41.8329 35.556C42.7627 37.6456 43.6479 39.7803 44.9762 41.5147C45.6403 42.4482 48.2963 42.9376 49.4917 43.4268C50.3772 43.8268 51.7498 44.1828 52.5465 44.6718C54.0515 45.6052 55.5566 46.673 56.9734 47.6954C57.6818 48.2291 59.8951 49.3409 60.0282 50.2301Z" fill="#00546B"/>
<path d="M14.8719 11.5876C14.1195 11.5876 13.5884 11.6771 13.0571 11.8102V11.8992H13.1457C13.5001 12.6107 14.1195 13.0999 14.562 13.7223C14.9164 14.4336 15.2261 15.1454 15.5805 15.857C15.6246 15.8122 15.6688 15.768 15.6688 15.768C16.2889 15.323 16.5986 14.6117 16.5986 13.5444C16.333 13.2334 16.2887 12.922 16.0673 12.6107C15.8019 12.1658 15.2261 11.9437 14.8719 11.5876Z" fill="#00546B"/>
</g>
<defs>
<clipPath id="clip0">
<rect width="65.1403" height="64.4083" fill="white" transform="translate(0.0664062 0.591675)"/>
</clipPath>
</defs>
</svg>
