<svg width="59" height="59" viewBox="0 0 59 59" fill="none" xmlns="http://www.w3.org/2000/svg">
<path d="M0 51.3925C0 55.5944 3.4061 59 7.60754 59H51.3922C55.5944 59 59 55.5939 59 51.3925V7.60777C59 3.40564 55.5939 0 51.3925 0H7.60777C3.40564 0 0 3.4061 0 7.60754V51.3922V51.3925Z" fill="#563D7C"/>
<path d="M24.4659 26.0978V17.7426H31.8204C32.521 17.7426 33.1963 17.8009 33.8467 17.9178C34.4971 18.0344 35.0725 18.2428 35.5729 18.5431C36.073 18.8434 36.4733 19.2603 36.7736 19.7938C37.0737 20.3276 37.224 21.0114 37.224 21.845C37.224 23.346 36.7736 24.4301 35.873 25.0971C34.9725 25.7643 33.8218 26.0978 32.4208 26.0978H24.4659ZM16.6108 11.6387V47.3613H33.9218C35.5229 47.3613 37.0822 47.1613 38.5999 46.761C40.1175 46.3606 41.4683 45.7437 42.6524 44.9098C43.8363 44.076 44.7787 43.0002 45.4791 41.6828C46.1798 40.3652 46.5298 38.8059 46.5298 37.0048C46.5298 34.7699 45.9878 32.8605 44.9039 31.2762C43.8197 29.6917 42.177 28.5827 39.9755 27.9489C41.5766 27.1819 42.7859 26.1978 43.6031 24.9971C44.4201 23.7964 44.8287 22.2955 44.8287 20.4942C44.8287 18.8265 44.5536 17.4257 44.0032 16.2916C43.4528 15.1577 42.6773 14.2487 41.6766 13.5649C40.6762 12.8811 39.4754 12.3891 38.0744 12.089C36.6736 11.7887 35.1226 11.6387 33.4215 11.6387H16.6108ZM24.4659 41.2574V31.4511H33.0211C34.7222 31.4511 36.0898 31.8429 37.1239 32.627C38.1578 33.4108 38.675 34.7199 38.675 36.5544C38.675 37.4885 38.5164 38.2555 38.1995 38.8559C37.8826 39.4563 37.4574 39.9317 36.9237 40.2818C36.3901 40.6321 35.7729 40.8822 35.0725 41.0324C34.3719 41.1822 33.6383 41.2574 32.8711 41.2574H24.4659Z" fill="white"/>
</svg>
