<svg width="54" height="76" viewBox="0 0 54 76" fill="none" xmlns="http://www.w3.org/2000/svg">
<g clip-path="url(#clip0)">
<path d="M27.1881 75.3217L5.67664 69.2719L0.882812 14.8025H53.5578L48.759 69.2636L27.1881 75.3217Z" fill="#264DE4"/>
<path d="M44.6506 65.7956L48.7513 19.2561H27.2202V70.691L44.6506 65.7956Z" fill="#2965F1"/>
<path d="M11.8726 39.4581L12.4635 46.1385H27.2204V39.4581H11.8726Z" fill="#EBEBEB"/>
<path d="M10.6846 25.9368L11.284 32.6172H27.2201V25.9368H10.6846Z" fill="#EBEBEB"/>
<path d="M27.2205 56.808L27.1916 56.8157L19.8476 54.8068L19.378 49.4789H12.7583L13.6821 59.9682L27.1902 63.7669L27.2205 63.7585V56.808Z" fill="#EBEBEB"/>
<path d="M13.2798 0H21.2664V3.38363H16.6198V6.76726H21.2668V10.1507H13.2798V0Z" fill="black"/>
<path d="M22.864 0H30.8508V2.94227H26.204V3.53068H30.8508V10.2979H22.8642V7.2082H27.511V6.61979H22.8638V0H22.864Z" fill="black"/>
<path d="M32.4482 0H40.4351V2.94227H35.7883V3.53068H40.4351V10.2979H32.4482V7.2082H37.0951V6.61979H32.4485V0H32.4482Z" fill="black"/>
<path d="M42.5259 39.4581L43.7162 25.9368H27.1975V32.6172H36.4895L35.8894 39.4581H27.1975V46.1385H35.3177L34.5521 54.8026L27.1973 56.8136V63.7637L40.7161 59.9682L40.8152 58.8395L42.365 41.252L42.5259 39.4581Z" fill="white"/>
</g>
<defs>
<clipPath id="clip0">
<rect width="52.8587" height="75.5125" fill="white" transform="translate(0.791016)"/>
</clipPath>
</defs>
</svg>
