<svg width="55" height="77" viewBox="0 0 55 77" fill="none" xmlns="http://www.w3.org/2000/svg">
<g clip-path="url(#clip0)">
<path d="M54.0217 15.3128L49.1544 69.7738L27.2753 75.832L5.45655 69.7822L0.594238 15.3128H54.0217Z" fill="#E44D26"/>
<path d="M27.3076 71.2012L44.987 66.3059L49.1463 19.7664H27.3076V71.2012Z" fill="#F16529"/>
<path d="M17.8458 33.1275H27.3078V26.4471H10.5361L10.6961 28.2393L12.3402 46.6488H27.3078V39.9684H18.4572L17.8458 33.1275Z" fill="#EBEBEB"/>
<path d="M19.3535 49.9892H12.6392L13.5761 60.4785L27.2772 64.2771L27.308 64.2688V57.3183L27.2787 57.326L19.8297 55.3171L19.3535 49.9892Z" fill="#EBEBEB"/>
<path d="M5.56494 0.510277H8.96398V3.86441H12.0734V0.510277H15.4726V10.6674H12.0736V7.26624H8.96419V10.6674H5.56515V0.510277H5.56494Z" fill="black"/>
<path d="M19.9421 3.87863H16.9502V0.510277H26.3356V3.87863H23.3418V10.6674H19.9427V3.87863H19.9425H19.9421Z" fill="black"/>
<path d="M27.8252 0.510277H31.3694L33.5495 4.07923L35.7276 0.510277H39.2732V10.6674H35.888V5.63299L33.5495 9.24441H33.4909L31.1509 5.63299V10.6674H27.8252V0.510277Z" fill="black"/>
<path d="M40.9646 0.510277H44.3647V7.31016H49.1447V10.6674H40.9644V0.510277H40.9646Z" fill="black"/>
<path d="M27.2849 46.6488H35.5211L34.7445 55.3129L27.2847 57.3239V64.274L40.9966 60.4785L41.0971 59.3498L42.6691 41.7623L42.8323 39.9684H27.2849V46.6488Z" fill="white"/>
<path d="M27.2847 33.1112V33.1275H43.4407L43.5747 31.626L43.8796 28.2393L44.0394 26.4471H27.2847V33.1114V33.1112Z" fill="white"/>
</g>
<defs>
<clipPath id="clip0">
<rect width="53.6139" height="75.5125" fill="white" transform="translate(0.500977 0.510277)"/>
</clipPath>
</defs>
</svg>
