<svg width="59" height="60" viewBox="0 0 59 60" fill="none" xmlns="http://www.w3.org/2000/svg">
<g clip-path="url(#clip0)">
<path d="M0.100098 0.326897H58.9998V59.2266H0.100098V0.326897Z" fill="#F7DF1E"/>
<path d="M15.5871 49.5477L20.0944 46.82C20.964 48.3617 21.7551 49.6662 23.6525 49.6662C25.4713 49.6662 26.6182 48.9548 26.6182 46.1875V27.3676H32.1532V46.2657C32.1532 51.9985 28.7927 54.6081 23.8897 54.6081C19.4619 54.6081 16.8917 52.3149 15.5869 49.5473" fill="black"/>
<path d="M35.1594 48.9546L39.6662 46.3453C40.8527 48.2828 42.3946 49.706 45.1224 49.706C47.4161 49.706 48.8784 48.5593 48.8784 46.9778C48.8784 45.0801 47.376 44.4078 44.8457 43.3012L43.4622 42.7076C39.4688 41.008 36.8199 38.8729 36.8199 34.3657C36.8199 30.2141 39.9827 27.051 44.925 27.051C48.4438 27.051 50.9742 28.2769 52.7928 31.4793L48.4829 34.2472C47.5339 32.5471 46.5064 31.8751 44.9248 31.8751C43.3037 31.8751 42.2757 32.903 42.2757 34.2472C42.2757 35.9076 43.3037 36.5801 45.6758 37.6081L47.0595 38.201C51.7645 40.2177 54.4134 42.2734 54.4134 46.8989C54.4134 51.881 50.4993 54.6088 45.2409 54.6088C40.1012 54.6088 36.7801 52.1575 35.1592 48.9548" fill="black"/>
</g>
<defs>
<clipPath id="clip0">
<rect width="58.8997" height="58.8997" fill="white" transform="translate(0.100098 0.326897)"/>
</clipPath>
</defs>
</svg>
