<svg width="65" height="39" viewBox="0 0 65 39" fill="none" xmlns="http://www.w3.org/2000/svg">
<g clip-path="url(#clip0)">
<path d="M32.0928 0C23.5348 0 18.1858 4.26801 16.0464 12.8038C19.2557 8.53577 22.9998 6.9353 27.2789 8.00236C29.7202 8.61104 31.4652 10.3778 33.3968 12.3331C36.5434 15.5188 40.1849 19.2057 48.1392 19.2057C56.6972 19.2057 62.0462 14.9377 64.1856 6.40189C60.9763 10.6699 57.2322 12.2704 52.9531 11.2033C50.5118 10.5946 48.7668 8.82786 46.8352 6.87253C43.6886 3.68684 40.047 0 32.0928 0ZM16.0464 19.2057C7.4884 19.2057 2.13944 23.4737 0 32.0094C3.20928 27.7414 6.95336 26.141 11.2325 27.208C13.6738 27.8167 15.4188 29.5835 17.3504 31.5388C20.497 34.7245 24.1385 38.4113 32.0928 38.4113C40.6508 38.4113 45.9998 34.1433 48.1392 25.6076C44.9299 29.8756 41.1858 31.476 36.9067 30.409C34.4654 29.8003 32.7204 28.0335 30.7888 26.0782C27.6422 22.8925 24.0006 19.2057 16.0464 19.2057Z" fill="url(#paint0_linear)"/>
</g>
<defs>
<linearGradient id="paint0_linear" x1="-1.78308" y1="12.2916" x2="53.5796" y2="44.2959" gradientUnits="userSpaceOnUse">
<stop stop-color="#2298BD"/>
<stop offset="1" stop-color="#0ED7B5"/>
</linearGradient>
<clipPath id="clip0">
<rect width="64.1856" height="38.5114" fill="white"/>
</clipPath>
</defs>
</svg>
